<mxfile host="app.diagrams.net" modified="2024-07-25T07:38:10.253Z" agent="Mozilla/5.0 (Windows NT 10.0; Win64; x64) AppleWebKit/537.36 (KHTML, like Gecko) Chrome/126.0.0.0 Safari/537.36" etag="hjBVNUrUvMjP5yR8SDUP" version="23.0.2" type="github">
  <diagram name="Page-1" id="c-LBESTsWk4GhdOicQx2">
    <mxGraphModel dx="936" dy="511" grid="1" gridSize="10" guides="1" tooltips="1" connect="1" arrows="1" fold="1" page="1" pageScale="1" pageWidth="850" pageHeight="1100" math="0" shadow="0">
      <root>
        <mxCell id="0" />
        <mxCell id="1" parent="0" />
        <mxCell id="ZHsp3BJBkllkspzBNNJd-2" value="" style="rounded=0;whiteSpace=wrap;html=1;" vertex="1" parent="1">
          <mxGeometry x="300" y="70" width="260" height="390" as="geometry" />
        </mxCell>
        <mxCell id="ZHsp3BJBkllkspzBNNJd-3" value="" style="ellipse;whiteSpace=wrap;html=1;" vertex="1" parent="1">
          <mxGeometry x="360" y="110" width="130" height="60" as="geometry" />
        </mxCell>
        <mxCell id="ZHsp3BJBkllkspzBNNJd-4" value="&lt;font style=&quot;font-size: 15px;&quot;&gt;Sistem Poin Siswa&lt;/font&gt;" style="text;html=1;strokeColor=none;fillColor=none;align=center;verticalAlign=middle;whiteSpace=wrap;rounded=0;" vertex="1" parent="1">
          <mxGeometry x="363" y="70" width="127" height="40" as="geometry" />
        </mxCell>
        <mxCell id="ZHsp3BJBkllkspzBNNJd-8" value="&lt;font style=&quot;font-size: 12px;&quot;&gt;Melakukan Kasus Pelanggaran&lt;/font&gt;" style="text;html=1;strokeColor=none;fillColor=none;align=center;verticalAlign=middle;whiteSpace=wrap;rounded=0;" vertex="1" parent="1">
          <mxGeometry x="360" y="120" width="127" height="40" as="geometry" />
        </mxCell>
        <mxCell id="ZHsp3BJBkllkspzBNNJd-10" value="" style="ellipse;whiteSpace=wrap;html=1;" vertex="1" parent="1">
          <mxGeometry x="363" y="180" width="130" height="60" as="geometry" />
        </mxCell>
        <mxCell id="ZHsp3BJBkllkspzBNNJd-11" value="&lt;font style=&quot;font-size: 12px;&quot;&gt;Menemui Kasus Pelanggaran&lt;/font&gt;" style="text;html=1;strokeColor=none;fillColor=none;align=center;verticalAlign=middle;whiteSpace=wrap;rounded=0;" vertex="1" parent="1">
          <mxGeometry x="364.5" y="190" width="127" height="40" as="geometry" />
        </mxCell>
        <mxCell id="ZHsp3BJBkllkspzBNNJd-12" value="" style="ellipse;whiteSpace=wrap;html=1;" vertex="1" parent="1">
          <mxGeometry x="330" y="250" width="200" height="60" as="geometry" />
        </mxCell>
        <mxCell id="ZHsp3BJBkllkspzBNNJd-13" value="&lt;font style=&quot;font-size: 12px;&quot;&gt;Memeriksa data siswa dan pelanggaran yang dilakukan&lt;/font&gt;" style="text;html=1;strokeColor=none;fillColor=none;align=center;verticalAlign=middle;whiteSpace=wrap;rounded=0;" vertex="1" parent="1">
          <mxGeometry x="353.25" y="260" width="153.5" height="40" as="geometry" />
        </mxCell>
        <mxCell id="ZHsp3BJBkllkspzBNNJd-15" value="" style="ellipse;whiteSpace=wrap;html=1;" vertex="1" parent="1">
          <mxGeometry x="365" y="320" width="130" height="60" as="geometry" />
        </mxCell>
        <mxCell id="ZHsp3BJBkllkspzBNNJd-16" value="" style="ellipse;whiteSpace=wrap;html=1;" vertex="1" parent="1">
          <mxGeometry x="365" y="390" width="130" height="60" as="geometry" />
        </mxCell>
        <mxCell id="ZHsp3BJBkllkspzBNNJd-17" value="&lt;font style=&quot;font-size: 12px;&quot;&gt;Mencatat Pelanggaran&lt;/font&gt;" style="text;html=1;strokeColor=none;fillColor=none;align=center;verticalAlign=middle;whiteSpace=wrap;rounded=0;" vertex="1" parent="1">
          <mxGeometry x="370" y="330" width="127" height="40" as="geometry" />
        </mxCell>
        <mxCell id="ZHsp3BJBkllkspzBNNJd-18" value="&lt;font style=&quot;font-size: 14px;&quot;&gt;Pelaporan&lt;/font&gt;" style="text;html=1;strokeColor=none;fillColor=none;align=center;verticalAlign=middle;whiteSpace=wrap;rounded=0;" vertex="1" parent="1">
          <mxGeometry x="365" y="355" width="127" height="130" as="geometry" />
        </mxCell>
        <mxCell id="ZHsp3BJBkllkspzBNNJd-19" value="Siswa" style="shape=umlActor;verticalLabelPosition=bottom;verticalAlign=top;html=1;outlineConnect=0;" vertex="1" parent="1">
          <mxGeometry x="100" y="190" width="60" height="110" as="geometry" />
        </mxCell>
        <mxCell id="ZHsp3BJBkllkspzBNNJd-21" value="Guru" style="shape=umlActor;verticalLabelPosition=bottom;verticalAlign=top;html=1;outlineConnect=0;" vertex="1" parent="1">
          <mxGeometry x="700" y="170" width="60" height="110" as="geometry" />
        </mxCell>
        <mxCell id="ZHsp3BJBkllkspzBNNJd-25" value="" style="endArrow=classic;html=1;rounded=0;entryX=0;entryY=0.5;entryDx=0;entryDy=0;exitX=1;exitY=0.3333333333333333;exitDx=0;exitDy=0;exitPerimeter=0;" edge="1" parent="1" source="ZHsp3BJBkllkspzBNNJd-19" target="ZHsp3BJBkllkspzBNNJd-8">
          <mxGeometry width="50" height="50" relative="1" as="geometry">
            <mxPoint x="230" y="190" as="sourcePoint" />
            <mxPoint x="280" y="140" as="targetPoint" />
          </mxGeometry>
        </mxCell>
        <mxCell id="ZHsp3BJBkllkspzBNNJd-27" value="" style="endArrow=classic;html=1;rounded=0;entryX=1;entryY=0.5;entryDx=0;entryDy=0;" edge="1" parent="1" target="ZHsp3BJBkllkspzBNNJd-11">
          <mxGeometry width="50" height="50" relative="1" as="geometry">
            <mxPoint x="700" y="240" as="sourcePoint" />
            <mxPoint x="620" y="230" as="targetPoint" />
          </mxGeometry>
        </mxCell>
        <mxCell id="ZHsp3BJBkllkspzBNNJd-28" value="" style="endArrow=classic;html=1;rounded=0;entryX=1;entryY=0.5;entryDx=0;entryDy=0;" edge="1" parent="1" target="ZHsp3BJBkllkspzBNNJd-12">
          <mxGeometry width="50" height="50" relative="1" as="geometry">
            <mxPoint x="700" y="240" as="sourcePoint" />
            <mxPoint x="620" y="260" as="targetPoint" />
          </mxGeometry>
        </mxCell>
        <mxCell id="ZHsp3BJBkllkspzBNNJd-29" value="" style="endArrow=classic;html=1;rounded=0;entryX=1;entryY=0.5;entryDx=0;entryDy=0;" edge="1" parent="1" target="ZHsp3BJBkllkspzBNNJd-17">
          <mxGeometry width="50" height="50" relative="1" as="geometry">
            <mxPoint x="700" y="240" as="sourcePoint" />
            <mxPoint x="670" y="280" as="targetPoint" />
          </mxGeometry>
        </mxCell>
        <mxCell id="ZHsp3BJBkllkspzBNNJd-30" value="" style="endArrow=classic;html=1;rounded=0;entryX=1;entryY=0.5;entryDx=0;entryDy=0;" edge="1" parent="1" target="ZHsp3BJBkllkspzBNNJd-18">
          <mxGeometry width="50" height="50" relative="1" as="geometry">
            <mxPoint x="700" y="240" as="sourcePoint" />
            <mxPoint x="650" y="320" as="targetPoint" />
          </mxGeometry>
        </mxCell>
      </root>
    </mxGraphModel>
  </diagram>
</mxfile>
